<svg width="177" height="177" viewBox="0 0 177 177" fill="none" xmlns="http://www.w3.org/2000/svg">
<g opacity="0.8">
<path d="M88.5 17.7C49.4007 17.7 17.7 49.4007 17.7 88.5C17.7 121.676 40.5448 149.435 71.3428 157.117C71.0124 156.161 70.8 155.052 70.8 153.677V141.576C67.9267 141.576 63.1122 141.576 61.9027 141.576C57.0588 141.576 52.7519 139.494 50.6633 135.623C48.3446 131.322 47.9434 124.744 42.1968 120.72C40.4917 119.381 41.7897 117.852 43.7544 118.059C47.3829 119.086 50.3919 121.575 53.2239 125.269C56.0441 128.968 57.3715 129.806 62.6402 129.806C65.1949 129.806 69.0181 129.658 72.6171 129.092C74.5523 124.177 77.8977 119.652 81.9864 117.516C58.41 115.091 47.1587 103.362 47.1587 87.438C47.1587 80.5822 50.0792 73.9506 55.0411 68.3633C53.4127 62.8173 51.3654 51.507 55.6665 47.2C66.2747 47.2 72.688 54.0794 74.2279 55.9379C79.5143 54.1266 85.3199 53.1 91.4205 53.1C97.5329 53.1 103.362 54.1266 108.66 55.9497C110.182 54.103 116.602 47.2 127.233 47.2C131.552 51.5129 129.481 62.8704 127.835 68.4046C132.768 73.9801 135.67 80.594 135.67 87.438C135.67 103.35 124.437 115.074 100.896 117.51C107.374 120.891 112.1 130.39 112.1 137.547V153.677C112.1 154.291 111.964 154.733 111.893 155.258C139.482 145.588 159.3 119.392 159.3 88.5C159.3 49.4007 127.599 17.7 88.5 17.7Z" fill="#2C2B44"/>
</g>
</svg>
