<svg width="25" height="25" viewBox="0 0 35 35" fill="none" xmlns="http://www.w3.org/2000/svg">
<path d="M24.6971 21.9159H23.1829L22.6463 21.3872C24.5246 19.1547 25.6554 16.2564 25.6554 13.1034C25.6554 6.07302 20.0779 0.374268 13.1971 0.374268C6.31627 0.374268 0.73877 6.07302 0.73877 13.1034C0.73877 20.1339 6.31627 25.8326 13.1971 25.8326C16.2829 25.8326 19.1196 24.6772 21.3046 22.758L21.8221 23.3064V24.8534L31.4054 34.6255L34.2613 31.7076L24.6971 21.9159ZM13.1971 21.9159C8.4246 21.9159 4.5721 17.9797 4.5721 13.1034C4.5721 8.22718 8.4246 4.29093 13.1971 4.29093C17.9696 4.29093 21.8221 8.22718 21.8221 13.1034C21.8221 17.9797 17.9696 21.9159 13.1971 21.9159Z" fill="#1976D2"/>
</svg>
