<svg width="26" height="26" viewBox="0 0 26 26" fill="none" xmlns="http://www.w3.org/2000/svg">
<path d="M13.5706 1.9923L15.5065 7.95016C15.8545 9.02141 16.8528 9.74671 17.9792 9.74671L24.2437 9.74671C24.8249 9.74671 25.0666 10.4905 24.5963 10.8321L19.5283 14.5143C18.617 15.1764 18.2357 16.3499 18.5838 17.4212L20.5196 23.379C20.6992 23.9318 20.0665 24.3915 19.5963 24.0498L14.5282 20.3677C13.617 19.7056 12.383 19.7056 11.4718 20.3677L6.4037 24.0498C5.93348 24.3915 5.30079 23.9318 5.4804 23.379L7.41622 17.4212C7.7643 16.3499 7.38298 15.1764 6.47172 14.5143L1.40366 10.8321C0.933433 10.4905 1.1751 9.74671 1.75633 9.74671L8.02079 9.74671C9.14718 9.74671 10.1455 9.02141 10.4935 7.95016L12.4294 1.9923C12.609 1.43951 13.391 1.43951 13.5706 1.9923Z" stroke="#505B8A" stroke-width="2"/>
</svg>
